<svg width="464" height="512" viewBox="0 0 464 512" fill="none" xmlns="http://www.w3.org/2000/svg">
<path d="M430.158 257.777L438.436 281.054C438.79 282.051 439.492 282.84 440.378 283.239L461.059 292.556C463.981 293.872 463.981 298.528 461.059 299.844L440.378 309.162C439.493 309.561 438.791 310.351 438.436 311.347L430.158 334.624C428.989 337.913 424.853 337.913 423.683 334.624L415.405 311.347C415.051 310.35 414.349 309.561 413.463 309.162L392.782 299.844C389.86 298.528 389.86 293.873 392.782 292.556L413.463 283.239C414.348 282.84 415.05 282.05 415.405 281.054L423.683 257.777C424.852 254.488 428.988 254.488 430.158 257.777Z" fill="white"/>
<path d="M30.101 216.2L36.242 233.466C36.505 234.205 37.025 234.791 37.682 235.087L53.023 241.998C55.19 242.975 55.19 246.428 53.023 247.404L37.682 254.315C37.025 254.611 36.505 255.197 36.242 255.936L30.101 273.202C29.233 275.641 26.166 275.641 25.298 273.202L19.157 255.936C18.894 255.197 18.374 254.611 17.717 254.315L2.37598 247.404C0.208982 246.427 0.208982 242.974 2.37598 241.998L17.717 235.087C18.374 234.791 18.894 234.205 19.157 233.466L25.298 216.2C26.165 213.761 29.233 213.761 30.101 216.2Z" fill="white"/>
<path d="M358.532 423.53L364.673 440.796C364.936 441.535 365.456 442.121 366.113 442.417L381.454 449.328C383.621 450.305 383.621 453.758 381.454 454.734L366.113 461.645C365.456 461.941 364.936 462.527 364.673 463.266L358.532 480.533C357.665 482.972 354.597 482.972 353.729 480.533L347.588 463.266C347.325 462.527 346.805 461.941 346.148 461.645L330.807 454.734C328.64 453.757 328.64 450.304 330.807 449.328L346.148 442.417C346.805 442.121 347.325 441.535 347.588 440.796L353.729 423.53C354.597 421.09 357.665 421.09 358.532 423.53Z" fill="white"/>
<path d="M32.0589 387.112C42.042 387.112 50.1349 379.019 50.1349 369.036C50.1349 359.053 42.042 350.96 32.0589 350.96C22.0758 350.96 13.9829 359.053 13.9829 369.036C13.9829 379.019 22.0758 387.112 32.0589 387.112Z" fill="white"/>
<path d="M428.932 407.145C433.239 407.145 436.73 403.654 436.73 399.347C436.73 395.04 433.239 391.549 428.932 391.549C424.625 391.549 421.134 395.04 421.134 399.347C421.134 403.654 424.625 407.145 428.932 407.145Z" fill="white"/>
<path d="M415.124 129.086C412.011 122.99 407.505 117.901 402.006 114.147C402.261 113.481 402.501 112.808 402.723 112.125C409.575 90.974 397.942 68.192 376.791 61.34H376.79C366.476 57.999 355.78 59.063 346.728 63.472C342.679 59.936 337.932 57.207 332.663 55.501C326.905 53.636 321.027 53.149 315.382 53.843C314.587 50.088 313.239 46.388 311.301 42.853C306.121 33.41 297.575 26.549 287.236 23.534C280.665 21.618 273.872 21.415 267.368 22.843C267.058 22.199 266.735 21.558 266.387 20.924C255.696 1.43099 231.139 -5.73001 211.645 4.96199C202.139 10.176 195.577 18.689 192.576 28.303C187.226 28.825 181.984 30.405 177.129 33.068C167.686 38.248 160.825 46.794 157.81 57.134C157.553 58.014 157.332 58.898 157.137 59.784C152.667 58.597 147.978 58.181 143.233 58.598H143.232C132.439 59.545 123.01 64.692 116.395 72.277C111.285 70.599 105.842 69.952 100.324 70.436H100.323C78.175 72.379 61.737 91.978 63.678 114.126C64.104 118.987 65.385 123.637 67.417 127.918C60.284 135.926 56.3201 146.725 57.3281 158.227C58.7891 174.884 70.2381 188.302 85.2451 193.11C91.1231 211.414 100.019 235.526 112.34 259.845C127.031 288.842 143.573 312.051 161.505 328.826C163.872 331.04 166.266 333.132 168.682 335.123L96.6751 418.306C96.5451 418.456 96.4201 418.609 96.3001 418.767C91.9141 424.481 90.202 431.622 91.478 438.874C92.841 446.617 97.543 453.561 104.381 457.923L117.016 465.983C121.762 469.011 127.155 470.587 132.585 470.587C134.203 470.587 135.826 470.447 137.434 470.164C142.048 469.351 146.205 467.434 149.625 464.604L146.637 474.465C146.584 474.639 146.536 474.815 146.493 474.991C144.644 482.548 146.048 490.601 150.345 497.086C154.642 503.571 161.511 508.003 169.191 509.246L183.985 511.64C185.492 511.884 186.989 512.002 188.469 512.002C201.938 512.002 213.84 502.217 216.061 488.501L221.833 452.834H271.091C277.487 452.834 283.63 449.949 287.947 444.919C292.772 439.298 294.874 431.735 293.713 424.172C291.752 411.388 289.005 400.052 285.54 390.22C295.767 386.217 303.032 376.26 303.032 364.632V363.556C303.032 355.857 299.844 348.892 294.725 343.899C301.196 339.624 307.501 334.584 313.623 328.777C331.325 311.984 347.538 288.756 361.81 259.737C375.295 232.319 384.432 205.161 389.922 186.293C392.53 185.569 395.087 184.593 397.552 183.334C407.145 178.436 414.255 170.096 417.574 159.85C420.892 149.604 420.022 138.678 415.124 129.086V129.086ZM370.58 80.514C381.158 83.941 386.976 95.335 383.549 105.913C381.889 111.037 378.333 115.209 373.536 117.658C372.727 118.071 371.897 118.422 371.055 118.718C370.584 117.32 370.007 115.946 369.324 114.608C365.697 107.506 359.522 102.241 351.936 99.784C349.386 98.958 346.804 98.502 344.246 98.373C344.352 96.746 344.655 95.106 345.18 93.484C347.94 84.962 355.869 79.531 364.379 79.531C366.433 79.531 368.522 79.848 370.58 80.514V80.514ZM357.559 171.963C354.132 182.542 342.735 188.358 332.16 184.933C330.329 184.339 328.654 183.493 327.135 182.465C328.064 173.488 326.007 164.171 320.682 156.12C321.615 154.407 322.777 152.874 324.118 151.536C326.89 153.744 330.061 155.462 333.533 156.587C336.579 157.574 339.671 158.043 342.713 158.043C347.181 158.043 351.532 157.014 355.481 155.145C358.499 160.008 359.458 166.104 357.559 171.963V171.963ZM266.917 85.172C272.089 86.68 276.363 90.111 278.953 94.833C279.128 95.153 279.276 95.48 279.432 95.805C279.239 95.9 279.041 95.979 278.848 96.078C269.256 100.976 262.145 109.316 258.827 119.562C258.312 121.151 257.909 122.749 257.6 124.348C256.94 124.225 256.281 124.081 255.627 123.891C250.456 122.383 246.181 118.952 243.591 114.229C242.034 111.391 241.212 108.289 241.12 105.143C244.592 104.655 248.034 103.554 251.285 101.77C258.021 98.076 262.975 92.062 265.325 84.781C265.858 84.892 266.389 85.018 266.917 85.172V85.172ZM325.837 122.712C327.299 118.199 330.431 114.524 334.657 112.367C337.196 111.071 339.945 110.415 342.716 110.415C344.557 110.415 346.407 110.705 348.209 111.288C352.722 112.75 356.397 115.882 358.554 120.107C360.712 124.332 361.095 129.145 359.633 133.658C358.171 138.171 355.039 141.845 350.814 144.002C346.588 146.16 341.776 146.543 337.262 145.081C332.749 143.619 329.075 140.487 326.918 136.262C324.758 132.038 324.375 127.226 325.837 122.712V122.712ZM313.363 133.595C313.391 133.748 313.426 133.899 313.457 134.052C310.374 136.464 307.676 139.297 305.435 142.477C297.115 138.233 287.493 136.966 278.312 138.995C276.775 134.888 276.549 130.263 278.002 125.775C279.426 121.381 282.25 117.697 286.049 115.19C290.902 122.983 298.414 129.176 307.811 132.22C309.644 132.812 311.498 133.269 313.363 133.595V133.595ZM192.273 204.789C185.888 195.686 188.099 183.085 197.202 176.699C198.652 175.682 200.192 174.886 201.78 174.301C202.983 177.896 204.709 181.38 206.994 184.638C210.489 189.619 214.923 193.549 219.882 196.394C219.94 200.407 220.806 204.345 222.441 208.01C221.792 208.614 221.111 209.194 220.365 209.718C211.262 216.103 198.66 213.892 192.273 204.789V204.789ZM167.796 133.149C174.134 129.257 179.273 123.674 182.649 117.09C191.367 118.672 198.324 125.912 199.135 135.153C199.605 140.519 197.958 145.747 194.497 149.874C192.286 152.511 189.499 154.487 186.378 155.7C182.942 146.451 176.252 138.881 167.789 134.28C167.798 133.905 167.8 133.527 167.796 133.149V133.149ZM232.591 171.46C230.422 172.981 228.499 174.758 226.839 176.734C225.603 175.675 224.471 174.456 223.494 173.063C217.108 163.96 219.32 151.359 228.423 144.972C237.526 138.587 250.127 140.798 256.513 149.901C259.606 154.311 260.798 159.661 259.867 164.967C259.709 165.869 259.47 166.742 259.197 167.6C250.521 164.712 240.634 165.818 232.591 171.46V171.46ZM246.667 213.395C241.994 212.575 237.92 209.985 235.196 206.101C232.472 202.217 231.423 197.505 232.243 192.832C233.063 188.159 235.653 184.085 239.537 181.361C242.634 179.188 246.189 178.146 249.712 178.146C255.311 178.146 260.826 180.781 264.278 185.702C269.902 193.719 267.955 204.818 259.937 210.443C256.052 213.167 251.339 214.217 246.667 213.395V213.395ZM252.501 67.053C254.783 71.213 255.308 76.012 253.98 80.566C252.652 85.121 249.63 88.885 245.47 91.167C241.31 93.449 236.51 93.975 231.957 92.646C227.402 91.318 223.637 88.295 221.356 84.136C219.074 79.976 218.549 75.177 219.877 70.623C221.205 66.068 224.227 62.304 228.387 60.022C231.042 58.565 233.957 57.825 236.903 57.825C238.573 57.825 240.253 58.063 241.9 58.543C246.455 59.872 250.22 62.894 252.501 67.053ZM215.909 103.774C217.606 102.843 219.208 101.792 220.729 100.652C220.854 100.733 220.982 100.81 221.108 100.888C220.419 108.312 221.814 115.766 225.207 122.544C224.713 123.287 224.159 123.992 223.563 124.669C221.75 125.48 219.978 126.433 218.261 127.533C216.382 119.658 212.21 112.754 206.549 107.474C209.744 106.655 212.887 105.431 215.909 103.774V103.774ZM155.645 131.881C156.059 136.607 154.609 141.212 151.56 144.847C148.511 148.482 144.229 150.712 139.503 151.126C129.739 151.988 121.113 144.74 120.258 134.984C119.843 130.258 121.294 125.653 124.343 122.018C127.391 118.383 131.674 116.153 136.399 115.739C136.925 115.693 137.446 115.671 137.964 115.671C147.062 115.671 154.835 122.65 155.645 131.881V131.881ZM129.906 162.179C132.471 162.9 135.163 163.289 137.929 163.289C138.798 163.289 139.677 163.251 140.559 163.174C148.434 162.484 155.329 158.772 160.215 153.291C164.888 156.586 168.141 161.827 168.679 167.96C169.149 173.326 167.502 178.554 164.041 182.681C160.58 186.808 155.718 189.34 150.352 189.81C144.983 190.284 139.758 188.633 135.631 185.172C131.504 181.711 128.972 176.849 128.502 171.483C128.214 168.2 128.74 165.036 129.906 162.179ZM205.258 233.34C206.448 233.445 207.642 233.516 208.84 233.516C216.837 233.516 224.91 231.148 231.938 226.218C233.528 225.102 235.002 223.884 236.379 222.59C236.519 222.66 236.663 222.722 236.804 222.79C236.935 230.241 239.125 237.496 243.24 243.858C241.796 246.65 239.689 249.148 236.942 251.075C227.84 257.461 215.239 255.249 208.852 246.146C206.126 242.261 204.979 237.742 205.258 233.34V233.34ZM260.602 233.57C258.741 230.917 257.577 227.922 257.147 224.803C260.544 223.936 263.846 222.472 266.881 220.342C273.359 215.797 277.472 209.125 278.954 201.925C284.648 202.453 290.087 205.372 293.62 210.408C300.006 219.511 297.794 232.112 288.691 238.498C279.589 244.885 266.987 242.672 260.602 233.57ZM276.004 181.724C275.822 181.387 275.63 181.053 275.434 180.72C277.487 176.936 278.953 172.814 279.719 168.45C280.252 165.414 280.425 162.372 280.273 159.367C282.469 158.583 284.752 158.186 287.026 158.186C293.383 158.186 299.645 161.177 303.564 166.764C308.821 174.259 308.24 184.117 302.794 190.933C295.194 184.656 285.625 181.473 276.004 181.724ZM326.452 74.675C328.138 75.221 329.698 75.974 331.121 76.891C328.976 80.015 327.232 83.489 326.006 87.273C324.128 93.07 323.65 98.985 324.366 104.664C321.26 107.082 318.613 110.131 316.636 113.694C315.763 113.536 314.89 113.325 314.023 113.044C303.444 109.617 297.626 98.223 301.053 87.645C303.813 79.124 311.742 73.692 320.251 73.692C322.305 73.692 324.395 74.008 326.452 74.675V74.675ZM281.594 42.884C286.765 44.392 291.039 47.823 293.63 52.546C295.21 55.427 295.995 58.527 296.084 61.604C292.103 64.576 288.647 68.294 285.956 72.64C282.012 69.585 277.494 67.261 272.559 65.822C269.922 65.053 267.25 64.561 264.574 64.336C264.434 63.995 264.287 63.655 264.134 63.318C268.373 57.199 270.839 50.016 271.276 42.624C272.799 42.259 274.355 42.068 275.92 42.068C277.816 42.068 279.724 42.339 281.594 42.884ZM221.337 22.634C231.087 17.286 243.369 20.869 248.716 30.618C251.855 36.342 251.9 42.931 249.441 48.482C248.108 47.87 246.72 47.352 245.286 46.934C237.63 44.702 229.564 45.584 222.572 49.419C220.244 50.696 218.133 52.255 216.263 54.042C215.154 52.849 214.172 51.504 213.354 50.013C208.006 40.263 211.588 27.981 221.337 22.634V22.634ZM177.159 62.776C178.667 57.605 182.098 53.33 186.821 50.74C188.359 49.896 189.975 49.267 191.633 48.851C192.434 52.559 193.767 56.214 195.682 59.707C198.608 65.042 202.584 69.432 207.201 72.803C206.817 76.802 207.245 80.814 208.469 84.639C207.753 85.168 207.011 85.668 206.216 86.104C199.099 90.008 190.643 89.135 184.51 84.596C182.736 79.847 180.078 75.479 176.633 71.693C176.147 68.752 176.3 65.72 177.159 62.776V62.776ZM144.993 78.676C156.069 77.693 165.872 85.926 166.843 97.004C167.414 103.515 164.8 109.572 160.302 113.661C154.237 106.822 145.127 102.832 135.343 103.693C132.7 103.925 130.143 104.501 127.714 105.383C127.179 103.845 126.814 102.222 126.665 100.527C125.694 89.449 133.915 79.647 144.993 78.676ZM102.084 90.513C103.832 90.361 105.563 90.443 107.247 90.732C106.49 94.445 106.239 98.324 106.587 102.287C107.119 108.351 108.982 113.98 111.852 118.927C109.893 122.434 108.674 126.281 108.258 130.276C107.391 130.469 106.507 130.611 105.607 130.69C100.245 131.161 95.0131 129.513 90.8871 126.052C86.7601 122.59 84.2281 117.729 83.7571 112.363C82.7851 101.287 91.007 91.484 102.084 90.513V90.513ZM80.687 143.612C87.476 148.391 95.4751 150.927 103.775 150.927C104.967 150.927 106.166 150.875 107.367 150.769C109.294 150.6 111.188 150.296 113.039 149.865C113.129 150.002 113.217 150.141 113.31 150.276C109.79 156.627 107.943 163.979 108.324 171.696C105.678 173.394 102.601 174.498 99.2571 174.792C88.1751 175.774 78.378 167.542 77.406 156.465C76.993 151.75 78.256 147.277 80.687 143.612V143.612ZM199.964 371.949C195.929 371.949 192.646 368.666 192.646 364.631V363.555C192.646 359.52 195.929 356.237 199.964 356.237H275.558C279.593 356.237 282.876 359.52 282.876 363.555V364.631C282.876 368.666 279.593 371.949 275.558 371.949H199.964ZM137.846 447.853C136.795 449.501 135.139 450.1 133.936 450.312C131.91 450.668 129.751 450.198 127.855 448.989L115.221 440.929C113.133 439.596 111.714 437.574 111.328 435.379C111.134 434.276 111.13 432.677 112.16 431.212L172.583 361.411C172.528 362.119 172.491 362.833 172.491 363.555V364.631C172.491 369.429 173.731 373.942 175.902 377.872L169.941 397.546L137.846 447.853ZM187.204 491.742L172.41 489.347C170.234 488.995 168.364 487.789 167.146 485.95C165.969 484.173 165.572 482.066 166.021 479.992L179.584 435.225C180.565 438.781 182.3 442.094 184.723 444.917C189.003 449.904 195.079 452.778 201.415 452.827L196.163 485.278C195.475 489.531 191.455 492.426 187.204 491.742V491.742ZM272.651 431.791C272.304 432.195 271.751 432.677 271.09 432.677H201.579C200.917 432.677 200.365 432.195 200.018 431.791C199.042 430.653 198.616 428.947 198.88 427.227C199.96 420.184 202.689 405.47 208.115 392.105H264.555C269.981 405.47 272.71 420.185 273.79 427.228C274.053 428.947 273.628 430.653 272.651 431.791V431.791ZM266.316 336.082H254.131L274.799 294.624C276.289 291.636 275.074 288.005 272.085 286.515C269.099 285.026 265.466 286.24 263.976 289.229L240.618 336.082H232.99L208.041 288.62C206.487 285.664 202.832 284.528 199.876 286.081C196.92 287.635 195.783 291.291 197.337 294.247L219.328 336.082H209.102C155.439 315.446 122.454 240.121 106.821 193.927C109.498 193.292 112.065 192.395 114.494 191.261C116.695 194.737 119.436 197.893 122.678 200.612C130.006 206.758 139.069 210.043 148.52 210.043C149.712 210.043 150.911 209.991 152.113 209.886C158.657 209.312 164.695 207.187 169.915 203.921C171.107 208.261 173.044 212.472 175.773 216.362C178.608 220.404 182.063 223.756 185.911 226.401C183.737 236.913 185.715 248.258 192.352 257.719C200.189 268.892 212.708 274.872 225.418 274.872C233.414 274.872 241.488 272.504 248.516 267.574C252.472 264.799 255.77 261.432 258.387 257.681C264.196 260.716 270.654 262.297 277.168 262.297C285.165 262.297 293.238 259.93 300.266 254.999C315.681 244.185 321.207 224.459 314.783 207.616C316.732 205.772 318.463 203.763 319.971 201.626C321.877 202.6 323.872 203.435 325.948 204.108C330.039 205.434 334.238 206.09 338.417 206.09C344.705 206.09 350.949 204.602 356.711 201.659C360.16 199.898 363.282 197.685 366.029 195.105C350.952 241.347 319.197 315.614 266.316 336.082V336.082ZM398.399 153.638C396.739 158.762 393.183 162.933 388.386 165.383C385.328 166.945 382 167.656 378.662 167.553C378.982 160.644 377.516 153.738 374.286 147.412C373.034 144.96 371.552 142.677 369.876 140.572C370.026 140.242 370.187 139.919 370.326 139.581C374.583 138.941 378.757 137.625 382.703 135.61C385.446 134.21 387.977 132.519 390.284 130.591C397.674 135.455 401.255 144.821 398.399 153.638V153.638Z" fill="white"/>
</svg>
