<svg width="61" height="61" viewBox="0 0 61 61" fill="none" xmlns="http://www.w3.org/2000/svg">
<path d="M58.6172 41.9375C59.9332 41.9375 61 40.8707 61 39.5547V14.2969C61 9.04134 56.7243 4.76562 51.4688 4.76562H48.3711V2.38281C48.3711 1.06679 47.3043 0 45.9883 0C44.6723 0 43.6055 1.06679 43.6055 2.38281V4.76562H32.7637V2.38281C32.7637 1.06679 31.6969 0 30.3809 0C29.0648 0 27.998 1.06679 27.998 2.38281V4.76562H17.2754V2.38281C17.2754 1.06679 16.2086 0 14.8926 0C13.5766 0 12.5098 1.06679 12.5098 2.38281V4.76562H9.53125C4.27572 4.76562 0 9.04134 0 14.2969V51.4688C0 56.7243 4.27572 61 9.53125 61H51.4688C56.7243 61 61 56.7243 61 51.4688C61 50.1527 59.9332 49.0859 58.6172 49.0859C57.3012 49.0859 56.2344 50.1527 56.2344 51.4688C56.2344 54.0965 54.0965 56.2344 51.4688 56.2344H9.53125C6.90348 56.2344 4.76562 54.0965 4.76562 51.4688V14.2969C4.76562 11.6691 6.90348 9.53125 9.53125 9.53125H12.5098V11.9141C12.5098 13.2301 13.5766 14.2969 14.8926 14.2969C16.2086 14.2969 17.2754 13.2301 17.2754 11.9141V9.53125H27.998V11.9141C27.998 13.2301 29.0648 14.2969 30.3809 14.2969C31.6969 14.2969 32.7637 13.2301 32.7637 11.9141V9.53125H43.6055V11.9141C43.6055 13.2301 44.6723 14.2969 45.9883 14.2969C47.3043 14.2969 48.3711 13.2301 48.3711 11.9141V9.53125H51.4688C54.0965 9.53125 56.2344 11.6691 56.2344 14.2969V39.5547C56.2344 40.8707 57.3012 41.9375 58.6172 41.9375Z" fill="#676F52"/>
<path d="M14.8926 27.4023C16.2086 27.4023 17.2754 26.3355 17.2754 25.0195C17.2754 23.7035 16.2086 22.6367 14.8926 22.6367C13.5766 22.6367 12.5098 23.7035 12.5098 25.0195C12.5098 26.3355 13.5766 27.4023 14.8926 27.4023Z" fill="#676F52"/>
<path d="M35.623 27.4023C36.939 27.4023 38.0059 26.3355 38.0059 25.0195C38.0059 23.7035 36.939 22.6367 35.623 22.6367C34.3071 22.6367 33.2402 23.7035 33.2402 25.0195C33.2402 26.3355 34.3071 27.4023 35.623 27.4023Z" fill="#676F52"/>
<path d="M45.9883 27.4023C47.3043 27.4023 48.3711 26.3355 48.3711 25.0195C48.3711 23.7035 47.3043 22.6367 45.9883 22.6367C44.6723 22.6367 43.6055 23.7035 43.6055 25.0195C43.6055 26.3355 44.6723 27.4023 45.9883 27.4023Z" fill="#676F52"/>
<path d="M14.8926 37.7676C16.2086 37.7676 17.2754 36.7008 17.2754 35.3848C17.2754 34.0688 16.2086 33.002 14.8926 33.002C13.5766 33.002 12.5098 34.0688 12.5098 35.3848C12.5098 36.7008 13.5766 37.7676 14.8926 37.7676Z" fill="#676F52"/>
<path d="M14.8926 48.1328C16.2086 48.1328 17.2754 47.066 17.2754 45.75C17.2754 44.434 16.2086 43.3672 14.8926 43.3672C13.5766 43.3672 12.5098 44.434 12.5098 45.75C12.5098 47.066 13.5766 48.1328 14.8926 48.1328Z" fill="#676F52"/>
<path d="M25.2578 27.4023C26.5738 27.4023 27.6406 26.3355 27.6406 25.0195C27.6406 23.7035 26.5738 22.6367 25.2578 22.6367C23.9418 22.6367 22.875 23.7035 22.875 25.0195C22.875 26.3355 23.9418 27.4023 25.2578 27.4023Z" fill="#676F52"/>
<path d="M25.2578 37.7676C26.5738 37.7676 27.6406 36.7008 27.6406 35.3848C27.6406 34.0688 26.5738 33.002 25.2578 33.002C23.9418 33.002 22.875 34.0688 22.875 35.3848C22.875 36.7008 23.9418 37.7676 25.2578 37.7676Z" fill="#676F52"/>
<path d="M25.2578 48.1328C26.5738 48.1328 27.6406 47.066 27.6406 45.75C27.6406 44.434 26.5738 43.3672 25.2578 43.3672C23.9418 43.3672 22.875 44.434 22.875 45.75C22.875 47.066 23.9418 48.1328 25.2578 48.1328Z" fill="#676F52"/>
<path d="M35.623 37.7676C36.939 37.7676 38.0059 36.7008 38.0059 35.3848C38.0059 34.0688 36.939 33.002 35.623 33.002C34.3071 33.002 33.2402 34.0688 33.2402 35.3848C33.2402 36.7008 34.3071 37.7676 35.623 37.7676Z" fill="#676F52"/>
<path d="M45.9883 37.7676C47.3043 37.7676 48.3711 36.7008 48.3711 35.3848C48.3711 34.0688 47.3043 33.002 45.9883 33.002C44.6723 33.002 43.6055 34.0688 43.6055 35.3848C43.6055 36.7008 44.6723 37.7676 45.9883 37.7676Z" fill="#676F52"/>
<path d="M35.623 48.1328C36.939 48.1328 38.0059 47.066 38.0059 45.75C38.0059 44.434 36.939 43.3672 35.623 43.3672C34.3071 43.3672 33.2402 44.434 33.2402 45.75C33.2402 47.066 34.3071 48.1328 35.623 48.1328Z" fill="#676F52"/>
</svg>
