<svg width="180" height="180" viewBox="0 0 180 180" fill="none" xmlns="http://www.w3.org/2000/svg">
<rect width="180" height="180" rx="90" fill="#DFE7EB"/>
<path d="M37.293 68.3437L48.25 99.2812L59.1484 68.3437L70.6914 68.3437V111H61.873V99.3398L62.752 79.2129L51.2383 111H45.2031L33.7187 79.2422L34.5977 99.3398L34.5977 111H25.8086L25.8086 68.3437H37.293ZM138.982 95.3848H131.98V111H123.191L123.191 68.3437L139.041 68.3437C144.08 68.3437 147.967 69.4668 150.701 71.7129C153.436 73.959 154.803 77.1328 154.803 81.2344C154.803 84.1445 154.168 86.5762 152.898 88.5293C151.648 90.4629 149.744 92.0059 147.186 93.1582L156.414 110.59V111H146.98L138.982 95.3848ZM131.98 88.2656H139.07C141.277 88.2656 142.986 87.709 144.197 86.5957C145.408 85.4629 146.014 83.9102 146.014 81.9375C146.014 79.9258 145.437 78.3437 144.285 77.1914C143.152 76.0391 141.404 75.4629 139.041 75.4629H131.98V88.2656Z" fill="url(#paint0_linear)"/>
<path d="M97 106L94.535 103.77C85.78 95.8807 80 90.6774 80 84.2916C80 79.0883 84.114 75 89.35 75C92.308 75 95.147 76.3684 97 78.5308C98.853 76.3684 101.692 75 104.65 75C109.886 75 114 79.0883 114 84.2916C114 90.6774 108.22 95.8807 99.465 103.787L97 106Z" fill="url(#paint1_linear)"/>
<defs>
<linearGradient id="paint0_linear" x1="90" y1="55" x2="90" y2="125" gradientUnits="userSpaceOnUse">
<stop stop-color="#030081"/>
<stop offset="1" stop-color="#030081" stop-opacity="0"/>
</linearGradient>
<linearGradient id="paint1_linear" x1="97" y1="75" x2="97" y2="106" gradientUnits="userSpaceOnUse">
<stop stop-color="#F42323"/>
<stop offset="1" stop-color="#C20000"/>
</linearGradient>
</defs>
</svg>
