<svg width="46" height="69" viewBox="0 0 46 69" fill="none" xmlns="http://www.w3.org/2000/svg">
<path d="M29.6905 52.7708L38.5138 40.7363C42.4593 35.3575 46 29.9531 46 22.9997C46 10.3492 35.7324 0.0507235 23.0939 0H22.9971C10.3173 0 0 10.3173 0 22.9997C0 29.9515 3.54071 35.3575 7.48617 40.7363L16.3089 52.7708H6.0497L0.103016 68.5406H45.897L39.9503 52.7708H29.6905ZM10.7241 38.3611C7.05476 33.3562 4.01605 28.7456 4.01605 22.9997C4.01605 12.5606 12.4832 4.06416 22.9087 4.01605H22.9997C33.4671 4.01605 41.9839 12.5329 41.9839 22.9997C41.9839 28.7456 38.9452 33.3573 35.2759 38.3611C35.2759 38.3611 23.4955 54.4698 23.0159 55.1255L10.7241 38.3611ZM5.91008 64.5246L8.82747 56.7869H19.253L22.9626 61.8456C22.9626 61.8456 26.063 57.7658 26.7752 56.7869H37.1725L40.0894 64.5246H5.91008Z" fill="#676E52"/>
<path d="M37.1648 22.9994C37.1648 15.1885 30.8097 8.83496 22.9999 8.83496C15.19 8.83496 8.83545 15.1885 8.83545 22.9994C8.83545 30.8092 15.19 37.1628 22.9999 37.1628C30.8097 37.1628 37.1648 30.8092 37.1648 22.9994ZM22.9999 33.1467C17.4046 33.1467 12.8515 28.5952 12.8515 22.9994C12.8515 17.4041 17.4046 12.851 22.9999 12.851C28.5957 12.851 33.1488 17.4041 33.1488 22.9994C33.1488 28.5952 28.5957 33.1467 22.9999 33.1467Z" fill="#676E52"/>
</svg>
