<svg width="16" height="24" viewBox="0 0 16 24" fill="none" xmlns="http://www.w3.org/2000/svg">
<path d="M10.3271 18.3551L13.3961 14.1691C14.7684 12.2982 16 10.4185 16 7.99991C16 3.59971 12.4287 0.017643 8.03265 0H7.999C3.58862 0 0 3.58862 0 7.99991C0 10.4179 1.23155 12.2982 2.60389 14.1691L5.67267 18.3551H2.10424L0.0358316 23.8402H15.9642L13.8958 18.3551H10.3271ZM3.73013 13.343C2.45383 11.6022 1.39689 9.99848 1.39689 7.99991C1.39689 4.36891 4.34199 1.41362 7.96826 1.39689H7.99991C11.6407 1.39689 14.6031 4.35927 14.6031 7.99991C14.6031 9.99848 13.5462 11.6025 12.2699 13.343C12.2699 13.343 8.17234 18.946 8.00555 19.1741L3.73013 13.343ZM2.05568 22.4433L3.07042 19.752H6.69669L7.98699 21.5115C7.98699 21.5115 9.0654 20.0924 9.31313 19.752H12.9296L13.9441 22.4433H2.05568Z" fill="white"/>
<path d="M12.9269 8C12.9269 5.28316 10.7165 3.07324 8 3.07324C5.28353 3.07324 3.07324 5.28316 3.07324 8C3.07324 10.7165 5.28353 12.9264 8 12.9264C10.7165 12.9264 12.9269 10.7165 12.9269 8ZM8 11.5295C6.05381 11.5295 4.47013 9.94636 4.47013 8C4.47013 6.05381 6.05381 4.47013 8 4.47013C9.94636 4.47013 11.53 6.05381 11.53 8C11.53 9.94636 9.94636 11.5295 8 11.5295Z" fill="white"/>
</svg>
