<svg width="21" height="23" viewBox="0 0 21 23" fill="none" xmlns="http://www.w3.org/2000/svg">
<path d="M17.6383 5.32841C15.8465 3.53288 13.5122 2.47874 11.0058 2.3181V1.34766H11.9941C12.3662 1.34766 12.6679 1.04596 12.6679 0.673828C12.6679 0.301695 12.3662 0 11.9941 0H8.66988C8.29774 0 7.99605 0.301695 7.99605 0.673828C7.99605 1.04596 8.29774 1.34766 8.66988 1.34766H9.65816V2.3181C7.93958 2.42825 6.30213 2.95855 4.86486 3.86L4.22477 3.21861C3.91323 2.90645 3.49883 2.73457 3.05783 2.73457C2.61683 2.73457 2.20243 2.90649 1.89094 3.21861L0.917439 4.19422C0.276629 4.83629 0.276629 5.88108 0.917439 6.5232L1.56189 7.16899C0.544723 8.79656 0 10.6802 0 12.6479C0 15.4128 1.07453 18.0123 3.02567 19.9675C4.97716 21.923 7.57194 23 10.332 23C13.092 23 15.6868 21.923 17.6383 19.9675C19.5894 18.0123 20.664 15.4128 20.664 12.6479C20.664 9.88308 19.5894 7.28359 17.6383 5.32841ZM1.87136 5.1462L2.8449 4.17064C2.92163 4.09378 3.01125 4.08228 3.05788 4.08228C3.10451 4.08228 3.19417 4.09373 3.2709 4.17064L3.7592 4.65993C3.50597 4.86985 3.26106 5.09261 3.02571 5.32845C2.79104 5.56362 2.56935 5.80831 2.36042 6.06131L1.87136 5.57126C1.75438 5.45405 1.75438 5.26336 1.87136 5.1462ZM10.332 21.6523C5.378 21.6523 1.34766 17.613 1.34766 12.6479C1.34766 7.6829 5.378 3.64352 10.332 3.64352C15.286 3.64352 19.3163 7.68285 19.3163 12.6479C19.3163 17.613 15.286 21.6523 10.332 21.6523Z" fill="white"/>
<path d="M10.3321 4.90625C6.0716 4.90625 2.60547 8.37898 2.60547 12.6475C2.60547 16.9161 6.0716 20.3888 10.3321 20.3888C14.5926 20.3888 18.0587 16.9161 18.0587 12.6475C18.0587 8.37898 14.5926 4.90625 10.3321 4.90625ZM11.0059 19.0055V18.2179C11.0059 17.8458 10.7042 17.5441 10.3321 17.5441C9.95994 17.5441 9.65825 17.8458 9.65825 18.2179V19.0055C6.67741 18.6904 4.30221 16.3093 3.98852 13.3214H4.76176C5.1339 13.3214 5.43559 13.0197 5.43559 12.6475C5.43559 12.2754 5.1339 11.9737 4.76176 11.9737H3.98857C4.30221 8.98583 6.67741 6.6047 9.65825 6.28957V7.07719C9.65825 7.44932 9.95994 7.75102 10.3321 7.75102C10.7042 7.75102 11.0059 7.44932 11.0059 7.07719V6.28957C13.9867 6.6047 16.3619 8.98583 16.6756 11.9737H15.9024C15.5303 11.9737 15.2286 12.2754 15.2286 12.6475C15.2286 13.0197 15.5303 13.3214 15.9024 13.3214H16.6756C16.3619 16.3093 13.9867 18.6904 11.0059 19.0055Z" fill="white"/>
<path d="M11.9941 12.2585H11.0435V9.5332C11.0435 9.16107 10.7418 8.85938 10.3696 8.85938C9.9975 8.85938 9.6958 9.16107 9.6958 9.5332V12.9323C9.6958 13.3044 9.9975 13.6061 10.3696 13.6061H11.9941C12.3662 13.6061 12.6679 13.3044 12.6679 12.9323C12.6679 12.5602 12.3662 12.2585 11.9941 12.2585Z" fill="white"/>
</svg>
