<svg width="68" height="76" viewBox="0 0 68 76" fill="none" xmlns="http://www.w3.org/2000/svg">
<path d="M57.5634 17.3895C51.7157 11.5297 44.0978 8.0895 35.918 7.56524V4.39814H39.1433C40.3578 4.39814 41.3424 3.41354 41.3424 2.19907C41.3424 0.984597 40.3578 0 39.1433 0H28.2946C27.0801 0 26.0955 0.984597 26.0955 2.19907C26.0955 3.41354 27.0801 4.39814 28.2946 4.39814H31.5199V7.56524C25.9112 7.92472 20.5673 9.65538 15.8767 12.5973L13.7877 10.5041C12.771 9.48532 11.4186 8.92441 9.97938 8.92441C8.54016 8.92441 7.18773 9.48547 6.17118 10.5041L2.99411 13.688C0.902792 15.7835 0.902792 19.1932 2.99411 21.2888L5.0973 23.3963C1.77773 28.708 0 34.8554 0 41.2771C0 50.3004 3.50678 58.7839 9.87441 65.1648C16.2432 71.5467 24.7114 75.0616 33.7189 75.0616C42.7265 75.0616 51.1946 71.5467 57.5634 65.1648C63.9311 58.7839 67.4379 50.3004 67.4379 41.2771C67.4379 32.2539 63.9311 23.7703 57.5634 17.3895ZM6.10726 16.7949L9.28447 13.6111C9.53487 13.3602 9.82735 13.3227 9.97953 13.3227C10.1317 13.3227 10.4243 13.3601 10.6747 13.6111L12.2683 15.2079C11.4419 15.893 10.6426 16.62 9.87456 17.3897C9.1087 18.1571 8.3852 18.9557 7.70334 19.7814L6.10726 18.1821C5.7255 17.7996 5.7255 17.1772 6.10726 16.7949ZM33.7189 70.6635C17.5514 70.6635 4.39814 57.4808 4.39814 41.2771C4.39814 25.0735 17.5514 11.8908 33.7189 11.8908C49.8865 11.8908 63.0397 25.0734 63.0397 41.2771C63.0397 57.4809 49.8865 70.6635 33.7189 70.6635Z" fill="#676E52"/>
<path d="M33.7186 16.0127C19.8143 16.0127 8.50244 27.3461 8.50244 41.2768C8.50244 55.2075 19.8143 66.5409 33.7186 66.5409C47.6229 66.5409 58.9347 55.2075 58.9347 41.2768C58.9347 27.3461 47.6229 16.0127 33.7186 16.0127ZM35.9177 62.0263V59.4559C35.9177 58.2414 34.9331 57.2568 33.7186 57.2568C32.5041 57.2568 31.5195 58.2414 31.5195 59.4559V62.0263C21.7914 60.9979 14.0398 53.227 13.0161 43.4759H15.5396C16.7541 43.4759 17.7387 42.4913 17.7387 41.2768C17.7387 40.0623 16.7541 39.0777 15.5396 39.0777H13.0163C14.0398 29.3266 21.7914 21.5557 31.5195 20.5272V23.0977C31.5195 24.3121 32.5041 25.2967 33.7186 25.2967C34.9331 25.2967 35.9177 24.3121 35.9177 23.0977V20.5272C45.6458 21.5557 53.3973 29.3266 54.4211 39.0777H51.8976C50.6831 39.0777 49.6985 40.0623 49.6985 41.2768C49.6985 42.4913 50.6831 43.4759 51.8976 43.4759H54.4209C53.3973 53.227 45.6458 60.9979 35.9177 62.0263Z" fill="#676E52"/>
<path d="M39.1437 40.0072H36.0412V31.1131C36.0412 29.8987 35.0566 28.9141 33.8421 28.9141C32.6277 28.9141 31.6431 29.8987 31.6431 31.1131V42.2063C31.6431 43.4207 32.6277 44.4053 33.8421 44.4053H39.1437C40.3581 44.4053 41.3427 43.4207 41.3427 42.2063C41.3427 40.9918 40.3581 40.0072 39.1437 40.0072Z" fill="#676E52"/>
</svg>
