<svg width="1280" height="169" viewBox="0 0 1280 169" fill="none" xmlns="http://www.w3.org/2000/svg">
<mask id="mask0" mask-type="alpha" maskUnits="userSpaceOnUse" x="0" y="0" width="1280" height="169">
<rect width="1280" height="169" fill="#C4C4C4"/>
</mask>
<g mask="url(#mask0)">
<path opacity="0.74" fill-rule="evenodd" clip-rule="evenodd" d="M0 19.6091L30.406 45.2499C61.0388 70.6639 121.851 121.946 182.89 102.658C243.701 83.5977 304.74 -6.03175 365.779 0.321736C426.591 6.67522 487.63 109.239 548.669 128.299C609.481 147.586 670.519 83.5977 731.331 57.9569C792.37 32.3161 853.409 45.2499 914.221 64.3104C975.26 83.5977 1036.3 109.239 1097.11 115.592C1158.15 121.946 1218.96 109.239 1249.59 102.658L1280 96.3047V249.923H1249.59C1218.96 249.923 1158.15 249.923 1097.11 249.923C1036.3 249.923 975.26 249.923 914.221 249.923C853.409 249.923 792.37 249.923 731.331 249.923C670.519 249.923 609.481 249.923 548.669 249.923C487.63 249.923 426.591 249.923 365.779 249.923C304.74 249.923 243.701 249.923 182.89 249.923C121.851 249.923 61.0388 249.923 30.406 249.923H0V19.6091Z" fill="white"/>
<path opacity="0.39" fill-rule="evenodd" clip-rule="evenodd" d="M1280 19.6091L1249.59 45.2499C1218.96 70.6639 1158.15 121.946 1097.11 102.658C1036.3 83.5977 975.26 -6.03175 914.221 0.321736C853.409 6.67522 792.37 109.239 731.331 128.299C670.519 147.586 609.481 83.5977 548.669 57.9569C487.63 32.3161 426.591 45.2499 365.779 64.3104C304.74 83.5977 243.701 109.239 182.89 115.592C121.851 121.946 61.0388 109.239 30.4059 102.658L-3.87579e-05 96.3047V249.923H30.4059C61.0388 249.923 121.851 249.923 182.89 249.923C243.701 249.923 304.74 249.923 365.779 249.923C426.591 249.923 487.63 249.923 548.669 249.923C609.481 249.923 670.519 249.923 731.331 249.923C792.37 249.923 853.409 249.923 914.221 249.923C975.26 249.923 1036.3 249.923 1097.11 249.923C1158.15 249.923 1218.96 249.923 1249.59 249.923H1280V19.6091Z" fill="white"/>
</g>
</svg>
