<svg width="1280" height="169" viewBox="0 0 1280 169" fill="none" xmlns="http://www.w3.org/2000/svg">
<mask id="mask0" mask-type="alpha" maskUnits="userSpaceOnUse" x="0" y="0" width="1280" height="169">
<rect x="1280" y="169" width="1280" height="169" transform="rotate(180 1280 169)" fill="#C4C4C4"/>
</mask>
<g mask="url(#mask0)">
<path opacity="0.74" fill-rule="evenodd" clip-rule="evenodd" d="M1280 149.391L1249.59 123.75C1218.96 98.3361 1158.15 47.0544 1097.11 66.3418C1036.3 85.4023 975.26 175.032 914.221 168.678C853.409 162.325 792.37 59.7614 731.331 40.701C670.519 21.4136 609.481 85.4023 548.669 111.043C487.63 136.684 426.591 123.75 365.779 104.69C304.74 85.4023 243.701 59.7614 182.89 53.4079C121.851 47.0544 61.0388 59.7614 30.4059 66.3418L-3.87579e-05 72.6953V-80.9228H30.4059C61.0388 -80.9228 121.851 -80.9228 182.89 -80.9228C243.701 -80.9228 304.74 -80.9228 365.779 -80.9228C426.591 -80.9228 487.63 -80.9228 548.669 -80.9228C609.481 -80.9228 670.519 -80.9228 731.331 -80.9228C792.37 -80.9228 853.409 -80.9228 914.221 -80.9228C975.26 -80.9228 1036.3 -80.9228 1097.11 -80.9228C1158.15 -80.9228 1218.96 -80.9228 1249.59 -80.9228H1280V149.391Z" fill="white"/>
<path opacity="0.39" fill-rule="evenodd" clip-rule="evenodd" d="M0 149.391L30.406 123.75C61.0388 98.3361 121.851 47.0544 182.89 66.3418C243.701 85.4023 304.74 175.032 365.779 168.678C426.591 162.325 487.63 59.7614 548.669 40.701C609.481 21.4136 670.519 85.4023 731.331 111.043C792.37 136.684 853.409 123.75 914.221 104.69C975.26 85.4023 1036.3 59.7614 1097.11 53.4079C1158.15 47.0544 1218.96 59.7614 1249.59 66.3418L1280 72.6953V-80.9228H1249.59C1218.96 -80.9228 1158.15 -80.9228 1097.11 -80.9228C1036.3 -80.9228 975.26 -80.9228 914.221 -80.9228C853.409 -80.9228 792.37 -80.9228 731.331 -80.9228C670.519 -80.9228 609.481 -80.9228 548.669 -80.9228C487.63 -80.9228 426.591 -80.9228 365.779 -80.9228C304.74 -80.9228 243.701 -80.9228 182.89 -80.9228C121.851 -80.9228 61.0388 -80.9228 30.406 -80.9228H0L0 149.391Z" fill="white"/>
</g>
</svg>
