<svg width="369" height="323" viewBox="0 0 369 323" fill="none" xmlns="http://www.w3.org/2000/svg">
<path d="M251.939 88.9016C226.816 88.9016 203.519 96.8676 184.437 110.404C174.659 103.468 163.773 97.9966 152.102 94.3086L182.176 54.5996C184.076 52.0906 184.29 48.4426 182.696 45.7296L158.356 4.29259C156.906 1.82459 153.894 0.100586 151.032 0.100586H81.584C78.674 0.100586 75.655 1.87659 74.242 4.42059L51.075 46.1226C49.583 48.8056 49.814 52.4056 51.637 54.8776L80.919 94.5856C34.011 109.809 0 153.923 0 205.838C0 270.317 52.458 322.775 116.936 322.775C142.059 322.775 165.356 314.809 184.438 301.273C203.519 314.809 226.816 322.775 251.94 322.775C316.419 322.775 368.876 270.317 368.876 205.838C368.875 141.359 316.418 88.9016 251.939 88.9016ZM184.438 260.557C172.294 245.604 165.003 226.558 165.003 205.838C165.003 185.119 172.293 166.072 184.438 151.119C196.582 166.072 203.872 185.118 203.872 205.838C203.872 226.558 196.582 245.604 184.438 260.557ZM30 205.838C30 157.901 69 118.902 116.936 118.902C133.346 118.902 148.707 123.474 161.816 131.408C145.075 151.643 135.003 177.586 135.003 205.838C135.003 234.09 145.075 260.034 161.816 280.268C148.707 288.202 133.346 292.774 116.936 292.774C69 292.774 30 253.775 30 205.838ZM251.939 292.774C235.529 292.774 220.168 288.202 207.059 280.268C223.8 260.033 233.872 234.09 233.872 205.838C233.872 177.586 223.8 151.643 207.059 131.408C220.168 123.474 235.529 118.902 251.939 118.902C299.876 118.902 338.875 157.902 338.875 205.838C338.875 253.775 299.876 292.774 251.939 292.774Z" fill="white"/>
</svg>
